/* XPM */
static char * mguard_xpm[] = {
"64 64 47 1",
" 	c None",
".	c #000000",
"+	c #A8A8A8",
"@	c #B4B4B4",
"#	c #989898",
"$	c #8C8C8C",
"%	c #646464",
"&	c #484848",
"*	c #383838",
"=	c #D0D0D0",
"-	c #707070",
";	c #5C5C5C",
">	c #2C2C2C",
",	c #545454",
"'	c #4C4C4C",
")	c #343434",
"!	c #C0C0C0",
"~	c #9C6038",
"{	c #403018",
"]	c #A0643C",
"^	c #905C34",
"/	c #202020",
"(	c #FCA470",
"_	c #FCBC9C",
":	c #B47044",
"<	c #E88C58",
"[	c #744C28",
"}	c #7C7C7C",
"|	c #6C4824",
"1	c #DC8854",
"2	c #FC9C60",
"3	c #F0945C",
"4	c #D08050",
"5	c #483818",
"6	c #A86840",
"7	c #DCDCDC",
"8	c #80502C",
"9	c #FCB080",
"0	c #FCFCFC",
"a	c #543C1C",
"b	c #885830",
"c	c #404040",
"d	c #282828",
"e	c #1C1C1C",
"f	c #FCA85C",
"g	c #5C4020",
"h	c #BC7848",
"................................................................",
"................................................................",
"................................................................",
"................................................................",
"................................................................",
"................................................................",
"................................................................",
"................................................................",
"................................................................",
"................................................................",
"................................................................",
"................................................................",
"................................................................",
".............................+@#$%&*&...........................",
"............................+$=$-%;&>&..........................",
"............................$$+$-%,&>*..........................",
"............................$$#$-%;'>)..........................",
"...........................-#==!+$-,,;'.........................",
"...........................$@a~{]^{^a-%.........................",
"...........................+/~(_(:_<[/-.........................",
"...........................}/|1233245/%.........................",
".............................561771~5...........................",
"..............................849<:5............................",
"..............................8|]]8.............................",
"..........................~aa0aa:]aa=aaa........................",
".........................~~aaa=aaaa=aaa||[......................",
"........................~~~aaaaa[6aa6aa~[||.....................",
"........................~~~aa~66[6666aa~b||.....................",
".......................~~~baa77@[6666aabb[|.....................",
".......................~~[|aa@66[66~~aa|[b[.....................",
".......................b|aaacde6[~~[|aabbbb.....................",
".......................b|a/*eed6[~b[baabb[~.....................",
".......................6bbceeeee[bb[[aabbbb.....................",
".......................6bb*deeee[bb[[a[bbbb.....................",
".......................66~.deeeb[aaabbbbbbb.....................",
".......................6~~f||ggg[[bbbbbbbb[.....................",
".......................~~1fhb[[|bbbbbbbb[ab.....................",
"........................~1fhbbb|bb[[[[[bbb......................",
".........................~~a~bgg[[[[[aa[[.......................",
"..........................[[[|[[[~6[b[|[........................",
"..........................aaa|[[[[[[[aa|........................",
"..........................aaa||[[[[[|aa|........................",
"..........................|[~666~~~6b||[........................",
".........................||~6666~~66~|a|b.......................",
".........................|[~6~~~~~66~|a|[.......................",
".........................|b66~~b.b~66[a|[.......................",
"........................|[~66~[|.b~66b|a|b......................",
"........................[b66~[a|.bb66~|aa[......................",
"........................b~66baa...b66~[aa|......................",
".......................bb~~b|aa...b~~b[aaa......................",
".......................[~bb[aa|...[bb[[|aab.....................",
"......................[[~~bb||.....b~~~b|a[.....................",
"......................[6666~[[.....b~666b|[.....................",
"......................aaa[[~ba.....~~b[|a.[.....................",
"......................./)dddd........eeee.......................",
".......................>*>ee.........e)>e.......................",
"......................e)*)ee.........e))e.......................",
"......................e))ee.........../dee......................",
"......................e)>e............edee......................",
"....................../)d.............d/de......................",
"......................e/e..............e/ee.....................",
"......................eee...............eee.....................",
".....................d**>e.............e/))d....................",
"....................e)c*)/.............e/)*d...................."};
