/* XPM */
static char *_bb8b5d2528b420598dc03e2194dbe965wziEjvwVBfA0dw2[] = {
/* columns rows colors chars-per-pixel */
"64 64 95 2 ",
"   c black",
".  c #010000",
"X  c #000100",
"o  c #010101",
"O  c #000002",
"+  c #010002",
"@  c #00070F",
"#  c #010810",
"$  c #000910",
"%  c #020F1F",
"&  c #01111E",
"*  c #00101F",
"=  c #001020",
"-  c #011120",
";  c #00192D",
":  c #00192F",
">  c #011A2E",
",  c #031930",
"<  c #01203D",
"1  c #02213D",
"2  c #03203E",
"3  c #02213E",
"4  c #00223E",
"5  c #03294D",
"6  c #03294E",
"7  c #03325C",
"8  c #03325E",
"9  c #05325C",
"0  c #05315E",
"q  c #04335F",
"w  c #023A69",
"e  c #033B6C",
"r  c #033B6E",
"t  c #02437B",
"y  c #044379",
"u  c #04427B",
"i  c #05437C",
"p  c #04427D",
"a  c #06437C",
"s  c #05437E",
"d  c #03447C",
"f  c #054A8B",
"g  c #054C8A",
"h  c #054A8D",
"j  c #054C8C",
"k  c #054C8E",
"l  c #05539B",
"z  c #06539B",
"x  c #055499",
"c  c #05559A",
"v  c #04549B",
"b  c #06559A",
"n  c #05539D",
"m  c #06529D",
"M  c #07539E",
"N  c #05559C",
"B  c #06549C",
"V  c #07549C",
"C  c #06549E",
"Z  c #065BAB",
"A  c #055CAB",
"S  c #055CAC",
"D  c #075CAC",
"F  c #065DAC",
"G  c #0563BA",
"H  c #0762BB",
"J  c #0664BB",
"K  c #0664BC",
"L  c #0765BC",
"P  c #0864BB",
"I  c #066DC9",
"U  c #066DCA",
"Y  c #0874D9",
"T  c #0876D8",
"R  c #0875DA",
"E  c #0975DA",
"W  c #087EE8",
"Q  c #097EE8",
"!  c #097DEA",
"~  c #087EEA",
"^  c #0786F7",
"/  c #0985F7",
"(  c #0886F7",
")  c #0786F9",
"_  c #0885F9",
"`  c #0985F9",
"'  c #0887F8",
"]  c #0987F8",
"[  c #0A86F8",
"{  c #0986FA",
"}  c #0887FA",
"|  c #0A86FA",
" . c #0A87FB",
".. c #0B87FB",
"X. c #0986FC",
/* pixels */
"{ { { { { { { { { { { { { { { { { { { { { { { { { { { { { { { { { { { { { { { { { { { { { { { { { { { { { { { { { { { { { { { { ",
"{ { { { { { { { { { { { { { { { { { { { { { { { { { { { { { { { { { { { { { { { { { { { { { { { { { { { { { { { { { { { { { { { ",
"{ { { { { { { { { { { { { { { { { { { { { { { { { { { { { { { { { { { { { { { { { { { { { { { { { { { { { { { { { { { { { { { { ",
"{ { { { { { { { { { { { { { { { { { { { { { { { { { { { { { { { { { { { { { { { { { { { { { { { { { { { { { { { { { { { { { { { ",
"{ { { { { { { { { { { { { { { { { { { { { { { { { { { { { { { { { { { { { { { { { { { { { { { { { { { { { { { { { { { { { { { { ",
"{ { { { { { { { { { { { { { { { { { { { { { { { { { { { { { { { { { { { { { { { { { { { { { { { { { { { { { { { { { { { { { { { ",
"{ { { { { { { { { { { { { { { { { { { { { { { { { { { { { { { { { { { { { { { { { { { { { { { { { { { { { { { { { { { { { { { { ",
"{ { { { { { { { { { { { { { { { { { { { { { { { { { { { { { { { { { { { { { { { { { { { { { { { { { { { { { { { { { { { { { { { ",
"{ { { { { { { { { { { { { { { { { { { { { { { { { { { { { { { { { { { { { { { { { { { { { { { { { { { { { { { { { { { { { { { { ",
"{ { { { { { { { { { { { { { { { { { { { { { { { { { { { { { { { { { { { { { { { { { { { { { { { { { { { { { { { { { { { { { { { ",
"{ { { { { { { { { { { { { { { { { { { { { { { { { { { { { { { { { { { { { { { { { { { { { { { { { { { { { { { { { { { { { { { { ",
"{ { { { { { { { { { { { { { { { { { { { { { { { { { { { { { { { { { { { { { { { { { { { { { { { { { { { { { { { { { { { { { { { ",
"{ { { { { { { { { { { { { { { { { { { { { { { { { { { { { { { { { { { { { { { { { { { { { { { { { { { { { { { { { { { { { { { { ",
"{ { { { { { { { { { { { { { { { { { { { { { { { { { { { { { { { { { { { { { { { { { { { { { { { { { { { { { { { { { { { { { { { ",
"{ { { { { { { { { { { { { { { { { { { { { { { { { { { { { { { { { { { { { { { { { { { { { { { { { { { { { { { { { { { { { { { { ",
"{ { { { { { { { { { { { { { { { { { { { { { { { { { { { { { { { { { { { { { { { { { { { { { { { { { { { { { { { { { { { { { { { ",
"{ { { { { { { { { { [ { ( ( ] ] { { { { { ( { / { { { { { { { { { { { { { { { { { ] [ ( { { [ { { ( { { { { { { { { { { { { { { ",
"{ { { { { { { { { [ { ( { [ ] { { ( { { ( { { { { { { { { { { { { { { { { { { { { { ] [ { { ) [ ] { [ { ] [ ^ { { { { { { { { { ",
"{ { { { { { { { { ( { { { { { { { { { ( { ( { ( { { { { { { { { { { { { { { { { { { ( { ( ( { { { { ] { { { { ( { { { { { { { { ",
"{ { { { { { { { { { { ( [ { { ] { { ( { { { ( { { { { { { { { { { { { { { { { { ] ( { ( ( { ( ( ] ] { ) ( [ { { { { { { { { { { ",
"{ { { { { { { { ^ ( { ( { { { { { { ( { { [ { ] { { { { { { { { { { { { { { { { { { ( { { ] { { ] { { { ( ( { ( { { { { { { { { ",
"{ { { { { { { { { { { { ( { { { [ ( { { [ { { { { { { { { { { { { { { { { { { { { ( ( { { ] { ) { ] { { { { { { { { { { { { { { ",
"{ { { { { { { { { { { [ { { { ( { { ( { { ) ] { { { { { { { { { { { { { { { { { { { [ { ] ] { { { { { { ] { { { { { { { { { { { ",
"{ { { { { { { { D 9 g ( { [ { ^ 8 9 U { { { { ( { { { { { { { { { { { { { { { { 9 1 Z ( ' { W 1 1 J { ( ( ( { [ { { { { { { { { ",
"{ { { { { { { { u     H { { ( {     b ] { ( ( ( { { { { { [ { ] { { { ) { { { { %   b { { ( E     z { { ] { { { { { { { { { { { ",
"{ { { { { { { { i     - ~ { { {     b X.) { { ( { { { { [ { ( [ ( { [ { { [ ) [ -   C ^ [ ( E     z ^ { ] { ( ) { { { { { { { { ",
"{ { { { { { { { s       r { { ]     b ] ( { Q n i i b E { { ( E z D { H n K J C #   8 n A ] R     b J k t A { { { { { { { { { { ",
"{ { { { { { { { s         J ( (     v { { E =         - Z { { n     1     1 1             E R     :         : Q { { { { { { { { ",
"{ { { { { { { { u   - 1   - Q {     n { { &   - D K ,   # Q [ M       & 1 i A i #   6 i a [ E       w z w     d { { { { { { { { ",
"{ { { { { { { { u   & E #   i {     b { K     K { { Q     h { M     g { { { ( { -   b { ' [ R     8 { { X.,   1 { { { { { { { { ",
"{ { { { { { { { s   & ( g     U     C ( z     Q { [ ) &   9 { n     Q { { ( { { &   b [ ] ^ E     x { { { 8   & { { { { { { { { ",
"{ { { { { { { { a   - { ] 1   1     C ( n     X.( { { &   8 { b     ( { { { ( ( &   C { { { E     b { { { 9   & { { { { { { { { ",
"{ { { { { { { { i   & { { E @       n { b     E { ] ( $   e { M     ] { { { { { &   z ^ { { E     b ( { ( 9   & { { { { { { { { ",
"{ { { { { { { { i   - { { ( k       b { E     s { ] K     b ( b     ] { { { { [ %   8 ) { { E     C { ( { 8   - { { { { { { { { ",
"{ { { { { { { { u   & { ^ ( { 1     z ( { w     6 7 #   - { { M     ] { ] ] { [ f         U E     M ( { ( 9   - { { { { { { { { ",
"{ { { { { { { { i   , ] ( ] ^ R #   Z ( / W r         1 E { [ b     ] { { ] ' [ Q 8 #     J R     A ] ( { 9   > { { { { { { { { ",
"{ { { { { { { { X.{ ] { { [ ] { { { [ { [ [ ] { E T / ^ { ( { [ ( ( { { { { { { { ] { { { [ [ { { { { { [ { { { { { { { { { { { ",
"{ { { { { { { { { ] { { [ ( ] ) { { ] [ { { ] { [ [ ( / { ( [ ( ( { { { ) ] { ] { { ] ] { { { { { { { ] { { { ( { { { { { { { { ",
"{ { { { { { { { { { { ( { { { { { ] { ] ( [ { { [ ( ( ( { { { { { ( ) { ] ] { { { { ] { { { { { { { { ( { ( { { { { { { { { { { ",
"{ { { { { { { { ( { ( { { { [ { { ] ] { { [ ( [ { { [ ( { { { { { ( { ) ] { { ] ( ] { ( ] [ ( [ ] ] { { { { ( ( { { { { { { { { ",
"{ { { { { { { { { { { { { { { { { { { { { { { { { { { { { { { { { { { { { { { { { { { { { { { { { { { { { { { { { { { { { { { { ",
"{ { { { { { { { { { { { { { { { { { { { { { { { { { { { { { { { { { { { { { { { { { { { { { { { { { { { { { { { { { { { { { { { ",
"{ { { { { { { { { { { { { { { { { { { { { { { { { { { { { { { { { { { { { { { { { { { { { { { { { { { { { { { { { { { { { { { { ",
"{ { { { { { { { { { { { { { { { { { { { { { { { { { { { { { { { { { { { { { { { { { { { { { { { { { { { { { { { { { { { { { { { ",
"{ { { { { { { { { { { { { { { { { { { { { { { { { { { { { { { { { { { { { { { { { { { { { { { { { { { { { { { { { { { { { { { { ",
"{ { { { { { { { { { { { { { { { { { { { { { { { { { { { { { { { { { { { { { { { { { { { { { { { { { { { { { { { { { { { { { { { ",
"{ { { { { { { { { { { { { { { { { { { { { { { { { { { { { { { { { { { { { { { { { { { { { { { { { { { { { { { { { { { { { { { { ",
"{ { { { { { { { { { { { { { { { { { { { { { { { { { { { { { { { { { { { { { { { { { { { { { { { { { { { { { { { { { { { { { { { ",
"{ { { { { { { { { { { { { { { { { { { { { { { { { { { { { { { { { { { { { { { { { { { { { { { { { { { { { { { { { { { { { { { { ",
"{ { { { { { { { { { { { { { { { { { { { { { { { { { { { { { { { { { { { { { { { { { { { { { { { { { { { { { { { { { { { { { { { ",
"{ { { { { { { { { { { { { { { { { { { { { { { { { { { { { { { { { { { { { { { { { { { { { { { { { { { { { { { { { { { { { { { { ",
"{ { { { { { { { { { { { { { { { { { { { { { { { { { { { { { { { { { { { { { { { { { { { { { { { { { { { { { { { { { { { { { { { ",
"{ { { { { { { { { { { { { { { { { { { { { { { { { { { { { { { { { { { { { { { { { { { { { { { { { { { { { { { { { { { { { { { { ",
"{ { { { { { { { { { { { { { { { { { { { { { { { { { { { { { { { { { { { { { { { { { { { { { { { { { { { { { { { { { { { { { { { ",
"{ { { { { { { { { { { { { { { { { { { { { { { { { { { { { { { { { { { { { { { { { { { { { { { { { { { { { { { { { { { { { { { { ",
"{ { { { { { { { { { { { { { { { { { { { { { { { { { { { { { { { { { { { { { { { { { { { { { { { { { { { { { { { { { { { { { { { ",
"{ { { { { { { { { { { { { { { { { { { { { { { { { { { { { { { { { { { { { { { { { { { { { { { { { { { { { { { { { { { { { { { { ",
"{ { { { { { { { { { { { { { { { { { { { { { { { { { { { { { { { { { { { { { { { { { { { { { { { { { { { { { { { { { { { { { { { ",
"{ { { { { { { { { { { { { { { { { { { { { { { { { { { { { { { { { { { { { { { { { { { { { { { { { { { { { { { { { { { { { { { { ",
"{ { { { { { { { { { { { { { { { { { { { { { { { { { { { { { { { { { { { { { { { { { { { { { { { { { { { { { { { { { { { { { { { ",
"{ { { { { { { { { { { { { { { { { { { { { { { { { { { { { { { { { { { { { { { { { { { { { { { { { { { { { { { { { { { { { { { { ",
"{ { { { { { { { { { { { { { { { { { { { { { { { { { { { { { { { { { { { { { { { { { { { { { { { { { { { { { { { { { { { { { { { ",
"{ { { { { { { { { { { { { { { { { { { { { { { { { { { { { { { { { { { { { { { { { { { { { { { { { { { { { { { { { { { { { { { { ",
"{ { { { { { { { { { { { { { { { { { { { { { { { { { { { { { { { { { { { { { { { { { { { { { { { { { { { { { { { { { { { { { { { "
};
