/* XPM */
static char *_0613_ae9742a486c8a94ab76bab89f62891c69ae2b0068536a8f7e890f1d9af5c1946[] = {
/* columns rows colors chars-per-pixel */
"64 64 34 1 ",
"  c black",
". c #100301",
"X c #1F0601",
"o c #1F0701",
"O c #2E0901",
"+ c #2E0A01",
"@ c #2F0A01",
"# c #3E0D02",
"$ c #4E1003",
"% c #5D1303",
"& c #5D1403",
"* c #6C1703",
"= c #6D1604",
"- c #6D1704",
"; c #7C1A04",
": c #7D1A05",
"> c #8C1D05",
", c #8C1E04",
"< c #9B2005",
"1 c #9C2105",
"2 c #9C2006",
"3 c #9C2106",
"4 c #AB2405",
"5 c #AB2406",
"6 c #BA2706",
"7 c #BB2706",
"8 c #BB2707",
"9 c #CA2A07",
"0 c #CB2A08",
"q c #DA2D07",
"w c #DA2D08",
"e c #E93008",
"r c #E93108",
"t c #F93409",
/* pixels */
"tttttttttttttttttttttttttttttttttttttttttttttttttttttttttttttttt",
"tttttttttttttttttttttttttttttttttttttttttttttttttttttttttttttttt",
"tttttttttttttttttttttttttttttttttttttttttttttttttttttttttttttttt",
"tttttttttttttttttttttttttttttttttttttttttttttttttttttttttttttttt",
"tttttttttttttttttttttttttttttttttttttttttttttttttttttttttttttttt",
"tttttttttttttttttttttttttttttttttttttttttttttttttttttttttttttttt",
"tttttttttttttttttttttttttttttttttttttttttttttttttttttttttttttttt",
"tttttttttttttttttttttttttttttttttttttttttttttttttttttttttttttttt",
"tttttttttttttttttttttttttttttttttttttttttttttttttttttttttttttttt",
"tttttttttttttttttttttttttttttttttttttttttttttttttttttttttttttttt",
"tttttttttttttttttttttttttttttttttttttttttttttttttttttttttttttttt",
"tttttttttttttttttttttttttttttttttttttttttttttttttttttttttttttttt",
"tttttttttttttttttttttttttttttttttttttttttttttttttttttttttttttttt",
"tttttttttttttttttttttttttttttttttttttttttttttttttttttttttttttttt",
"tttttttttttttttttttttttttttttttttttttttttttttttttttttttttttttttt",
"tttttttttttttttttttttttttttttttttttttttttttttttttttttttttttttttt",
"tttttttttttttttttttttttttttttttttttttttttttttttttttttttttttttttt",
"tttttttttttttttttttttttttttttttttttttttttttttttttttttttttttttttt",
"tttttttttttttttttttttttttttttttttttttttttttttttttttttttttttttttt",
"tttttttttttttttttttttttttttttttttttttttttttttttttttttttttttttttt",
"tttttttttttttttttttttttttttttttttttttttttttttttttttttttttttttttt",
"tttttttttttttttttttttttttttttttttttttttttttttttttttttttttttttttt",
"tttttttttttttttttttttttttttttttttttttttttttttttttttttttttttttttt",
"ttttttttt6%##%7ttttttttttttttttttttttttttr##rttt6##ttttttttttttt",
"tttttttt#      =tttttttttttttttttttttttttw  qttt3  ttttttttttttt",
"ttttttt2  %55%  >ttttttttttttttttttttttttw  qttt3  ttttttttttttt",
"ttttttt# Xtttt# #tttt6;;<wtttw14tttt51wt1,  >18t3  t6;;7tttttttt",
"ttttttt% .wttttttttwX     <tt3  tttt  ;t      Xt3  &    ;ttttttt",
"ttttttt8   %<wtttttX X38$  wt3  tttt  ;t;-  *;<t3  .:>X  8tttttt",
"tttttttt2X    +<tt9  <ttr. ;t3  tttt  ;ttw  qttt3  5ttw  *tttttt",
"tttttttttt5%X   ;t5  qttt@ %t3  tttt  ;ttw  qttt3  rttto %tttttt",
"ttttttttttttt0X  r3  qttt# %t3  tttt  ;ttw  qttt3  tttto %tttttt",
"ttttttt%%8tttt3  q5  qttt@ %t3  rttt  ;ttw  qttt3  tttto %tttttt",
"ttttttt. X9tteO  rr  =ttw  <t8  >tt>  ;ttw  >ttt3  tttto %tttttt",
"ttttttt>   .o   :tt-  $%. XettX  #+   ;ttt#   .t3  tttto %tttttt",
"tttttttt8#    #<tttt:.   #wtttwX  .>@ >tttw#  .t3  tttt@ *tttttt",
"ttttttttttewwettttttttwwetttttttwwettttttttttttttttttttttttttttt",
"tttttttttttttttttttttttttttttttttttttttttttttttttttttttttttttttt",
"tttttttttttttttttttttttttttttttttttttttttttttttttttttttttttttttt",
"tttttttttttttttttttttttttttttttttttttttttttttttttttttttttttttttt",
"tttttttttttttttttttttttttttttttttttttttttttttttttttttttttttttttt",
"tttttttttttttttttttttttttttttttttttttttttttttttttttttttttttttttt",
"tttttttttttttttttttttttttttttttttttttttttttttttttttttttttttttttt",
"tttttttttttttttttttttttttttttttttttttttttttttttttttttttttttttttt",
"tttttttttttttttttttttttttttttttttttttttttttttttttttttttttttttttt",
"tttttttttttttttttttttttttttttttttttttttttttttttttttttttttttttttt",
"tttttttttttttttttttttttttttttttttttttttttttttttttttttttttttttttt",
"tttttttttttttttttttttttttttttttttttttttttttttttttttttttttttttttt",
"tttttttttttttttttttttttttttttttttttttttttttttttttttttttttttttttt",
"tttttttttttttttttttttttttttttttttttttttttttttttttttttttttttttttt",
"tttttttttttttttttttttttttttttttttttttttttttttttttttttttttttttttt",
"tttttttttttttttttttttttttttttttttttttttttttttttttttttttttttttttt",
"tttttttttttttttttttttttttttttttttttttttttttttttttttttttttttttttt",
"tttttttttttttttttttttttttttttttttttttttttttttttttttttttttttttttt",
"tttttttttttttttttttttttttttttttttttttttttttttttttttttttttttttttt",
"tttttttttttttttttttttttttttttttttttttttttttttttttttttttttttttttt",
"tttttttttttttttttttttttttttttttttttttttttttttttttttttttttttttttt",
"tttttttttttttttttttttttttttttttttttttttttttttttttttttttttttttttt",
"tttttttttttttttttttttttttttttttttttttttttttttttttttttttttttttttt",
"tttttttttttttttttttttttttttttttttttttttttttttttttttttttttttttttt",
"tttttttttttttttttttttttttttttttttttttttttttttttttttttttttttttttt",
"tttttttttttttttttttttttttttttttttttttttttttttttttttttttttttttttt",
"tttttttttttttttttttttttttttttttttttttttttttttttttttttttttttttttt",
"tttttttttttttttttttttttttttttttttttttttttttttttttttttttttttttttt"
};
