/* XPM */
static char *_704_32214b17bff854c5d4ac4519420c1609a93c32f48eeb343f36beaf7536c77e9f[] = {
/* columns rows colors chars-per-pixel */
"64 64 29 1 ",
"  c black",
". c #010110",
"X c #01011F",
"o c #02011F",
"O c #02012E",
"+ c #02012F",
"@ c #03012F",
"# c #02022F",
"$ c #03023E",
"% c #04023E",
"& c #04024D",
"* c #04034E",
"= c #05035D",
"- c #06036C",
"; c #06046D",
": c #07047C",
"> c #08058C",
", c #09059B",
"< c #08059C",
"1 c #08069C",
"2 c #0906AB",
"3 c #0A06AB",
"4 c #0A06BA",
"5 c #0A07BB",
"6 c #0B07CA",
"7 c #0B08CB",
"8 c #0C08DA",
"9 c #0D08E9",
"0 c #0E09F9",
/* pixels */
"0000000000000000000000000000000000000000000000000000000000000000",
"0000000000000000000000000000000000000000000000000000000000000000",
"0000000000000000000000000000000000000000000000000000000000000000",
"0000000000000000000000000000000000000000000000000000000000000000",
"0000000000000000000000000000000000000000000000000000000000000000",
"0000000000000000000000000000000000000000000000000000000000000000",
"0000000000000000000000000000000000000000000000000000000000000000",
"0000000000000000000000000000000000000000000000000000000000000000",
"0000000000000000000000000000000000000000000000000000000000000000",
"0000000000000000000000000000000000000000000000000000000000000000",
"0000000000000000000000000000000000000000000000000000000000000000",
"0000000000000000000000000000000000000000000000000000000000000000",
"0000000000000000000000000000000000000000000000000000000000000000",
"0000000000000000000000000000000000000000000000000000000000000000",
"0000000000000000000000000000000000000000000000000000000000000000",
"0000000000000000000000000000000000000000000000000000000000000000",
"0000000000000000000000000000000000000000000000000000000000000000",
"0000000000000000000000000000000000000000000000000000000000000000",
"0000000000000000000000000000000000000000000000000000000000000000",
"0000000000000000000000000000000000000000000000000000000000000000",
"0000000000000000000000000000000000000000000000000000000000000000",
"0000000000000000000000000000000000000000000000000000000000000000",
"0000000000000000000000000000000000000000000000000000000000000000",
"000000000008==900000002=-00000000000000000000001$;00000000000000",
"000000000006  20000000; #0000000000000000000000= $00000000000000",
"000000000000  >0000000$ *0000000000000000000000= $00000000000000",
"000000000000@ =00:$200. :0009>:>8000004>:>8008<% o<<800000000000",
"000000000000= o00  $06  200:     :000:     :01      ,00000000000",
"000000000000>  93  .93  604  >81. ,04  58>  67:+ o::800000000000",
"0000000000005  6= . 5: .00& $000; $01  80098000= $00000000000000",
"0000000000009  ,X 2 -& $00@ O:::$  09.  *>60000= $00000000000000",
"0000000000000X + *9..X -00X        008*    *900= $00000000000000",
"0000000000000&   ,0=   200@ =000000000005=  :00= $00000000000000",
"0000000000000;   905   600; .900>=>05:,000X =00: .80000000000000",
"00000000000001  *009.  0008. o:$  ,01  =:*  ,005    =00000000000",
"00000000000008  ,000= #00008$   O,0001X   .>00001+  -00000000000",
"0000000000000000000000000000098800000008880000000000000000000000",
"0000000000000000000000000000000000000000000000000000000000000000",
"0000000000000000000000000000000000000000000000000000000000000000",
"0000000000000000000000000000000000000000000000000000000000000000",
"0000000000000000000000000000000000000000000000000000000000000000",
"0000000000000000000000000000000000000000000000000000000000000000",
"0000000000000000000000000000000000000000000000000000000000000000",
"0000000000000000000000000000000000000000000000000000000000000000",
"0000000000000000000000000000000000000000000000000000000000000000",
"0000000000000000000000000000000000000000000000000000000000000000",
"0000000000000000000000000000000000000000000000000000000000000000",
"0000000000000000000000000000000000000000000000000000000000000000",
"0000000000000000000000000000000000000000000000000000000000000000",
"0000000000000000000000000000000000000000000000000000000000000000",
"0000000000000000000000000000000000000000000000000000000000000000",
"0000000000000000000000000000000000000000000000000000000000000000",
"0000000000000000000000000000000000000000000000000000000000000000",
"0000000000000000000000000000000000000000000000000000000000000000",
"0000000000000000000000000000000000000000000000000000000000000000",
"0000000000000000000000000000000000000000000000000000000000000000",
"0000000000000000000000000000000000000000000000000000000000000000",
"0000000000000000000000000000000000000000000000000000000000000000",
"0000000000000000000000000000000000000000000000000000000000000000",
"0000000000000000000000000000000000000000000000000000000000000000",
"0000000000000000000000000000000000000000000000000000000000000000",
"0000000000000000000000000000000000000000000000000000000000000000",
"0000000000000000000000000000000000000000000000000000000000000000",
"0000000000000000000000000000000000000000000000000000000000000000"
};
